<svg width="32" height="32" viewBox="0 0 32 32" fill="currentColor" xmlns="http://www.w3.org/2000/svg">
  <path
    d="M10 3.875C10.6213 3.875 11.125 4.37868 11.125 5C11.125 5.62132 10.6213 6.125 10 6.125C9.12171 6.125 8.56909 6.27699 8.21777 6.46484C7.88551 6.64257 7.6697 6.88614 7.5127 7.20996C7.14905 7.96014 7.125 9.04131 7.125 10.5C7.125 11.7912 7.14897 13.4601 6.5127 14.7725C6.29112 15.2294 5.98803 15.6464 5.58887 16C5.98803 16.3536 6.29112 16.7706 6.5127 17.2275C7.14897 18.5399 7.125 20.2088 7.125 21.5C7.125 22.9587 7.14905 24.0399 7.5127 24.79C7.6697 25.1139 7.88551 25.3574 8.21777 25.5352C8.56909 25.723 9.12171 25.875 10 25.875C10.6213 25.875 11.125 26.3787 11.125 27C11.125 27.6213 10.6213 28.125 10 28.125C8.87839 28.125 7.93087 27.9332 7.15723 27.5195C6.36468 27.0957 5.83027 26.4797 5.4873 25.7725C4.85103 24.4601 4.875 22.7912 4.875 21.5C4.875 20.0413 4.85095 18.9601 4.4873 18.21C4.3303 17.8861 4.11449 17.6426 3.78223 17.4648C3.43091 17.277 2.87829 17.125 2 17.125C1.37868 17.125 0.875 16.6213 0.875 16C0.875 15.3787 1.37868 14.875 2 14.875C2.87829 14.875 3.43091 14.723 3.78223 14.5352C4.11449 14.3574 4.3303 14.1139 4.4873 13.79C4.85095 13.0399 4.875 11.9587 4.875 10.5C4.875 9.2088 4.85103 7.53985 5.4873 6.22754C5.83027 5.52025 6.36468 4.90426 7.15723 4.48047C7.93087 4.06684 8.87839 3.875 10 3.875Z"
  ></path>
  <path
    d="M22 3.875C23.1216 3.875 24.0691 4.06684 24.8428 4.48047C25.6353 4.90426 26.1697 5.52025 26.5127 6.22754C27.149 7.53985 27.125 9.2088 27.125 10.5C27.125 11.9587 27.149 13.0399 27.5127 13.79C27.6697 14.1139 27.8855 14.3574 28.2178 14.5352C28.5691 14.723 29.1217 14.875 30 14.875C30.6213 14.875 31.125 15.3787 31.125 16C31.125 16.6213 30.6213 17.125 30 17.125C29.1217 17.125 28.5691 17.277 28.2178 17.4648C27.8855 17.6426 27.6697 17.8861 27.5127 18.21C27.149 18.9601 27.125 20.0413 27.125 21.5C27.125 22.7912 27.149 24.4601 26.5127 25.7725C26.1697 26.4797 25.6353 27.0957 24.8428 27.5195C24.0691 27.9332 23.1216 28.125 22 28.125C21.3787 28.125 20.875 27.6213 20.875 27C20.875 26.3787 21.3787 25.875 22 25.875C22.8783 25.875 23.4309 25.723 23.7822 25.5352C24.1145 25.3574 24.3303 25.1139 24.4873 24.79C24.851 24.0399 24.875 22.9587 24.875 21.5C24.875 20.2088 24.851 18.5399 25.4873 17.2275C25.7088 16.7708 26.0113 16.3535 26.4102 16C26.0113 15.6465 25.7088 15.2292 25.4873 14.7725C24.851 13.4601 24.875 11.7912 24.875 10.5C24.875 9.04131 24.851 7.96014 24.4873 7.20996C24.3303 6.88614 24.1145 6.64257 23.7822 6.46484C23.4309 6.27699 22.8783 6.125 22 6.125C21.3787 6.125 20.875 5.62132 20.875 5C20.875 4.37868 21.3787 3.875 22 3.875Z"
  ></path>
</svg>
