<svg width="32" height="32" viewBox="0 0 32 32" fill="currentColor" xmlns="http://www.w3.org/2000/svg">
  <path
    d="M8 3.75C8.69036 3.75 9.25 4.30964 9.25 5C9.25 5.69036 8.69036 6.25 8 6.25H5.25V25.75H8C8.69036 25.75 9.25 26.3096 9.25 27C9.25 27.6904 8.69036 28.25 8 28.25H4C3.30964 28.25 2.75 27.6904 2.75 27V5C2.75 4.30964 3.30964 3.75 4 3.75H8Z"
  ></path>
  <path
    d="M28 3.75C28.6904 3.75 29.25 4.30964 29.25 5V27C29.25 27.6904 28.6904 28.25 28 28.25H24C23.3096 28.25 22.75 27.6904 22.75 27C22.75 26.3096 23.3096 25.75 24 25.75H26.75V6.25H24C23.3096 6.25 22.75 5.69036 22.75 5C22.75 4.30964 23.3096 3.75 24 3.75H28Z"
  ></path>
  <path
    d="M14.75 22V12C14.75 11.3096 15.3096 10.75 16 10.75C16.6904 10.75 17.25 11.3096 17.25 12V22C17.25 22.6904 16.6904 23.25 16 23.25C15.3096 23.25 14.75 22.6904 14.75 22Z"
  ></path>
  <path
    d="M20 10.75C20.6904 10.75 21.25 11.3096 21.25 12C21.25 12.6904 20.6904 13.25 20 13.25H12C11.3096 13.25 10.75 12.6904 10.75 12C10.75 11.3096 11.3096 10.75 12 10.75H20Z"
  ></path>
</svg>
