<svg width="32" height="32" viewBox="0 0 32 32" fill="currentColor" xmlns="http://www.w3.org/2000/svg">
  <path
    d="M16.125 3C23.3047 3 29.25 8.9453 29.25 16.125C29.25 23.3047 23.3047 29.25 16.125 29.25C8.9453 29.25 3 23.3047 3 16.125C3 8.9453 8.9453 3 16.125 3ZM15 13.875C14.3787 13.875 13.875 14.3787 13.875 15C13.875 15.579 14.3126 16.055 14.875 16.1172V21C14.875 21.5636 15.0986 22.1044 15.4971 22.5029C15.8956 22.9014 16.4364 23.125 17 23.125C17.6213 23.125 18.125 22.6213 18.125 22C18.125 21.4209 17.6875 20.944 17.125 20.8818V16C17.125 15.5068 16.9534 15.0315 16.6436 14.6533L16.5029 14.4971L16.3467 14.3564C15.9685 14.0466 15.4932 13.875 15 13.875ZM15.5 9C14.6716 9 14 9.67157 14 10.5C14 11.3284 14.6716 12 15.5 12C16.3284 12 17 11.3284 17 10.5C17 9.67157 16.3284 9 15.5 9Z"
  ></path>
</svg>
