<svg width="70" height="32" viewBox="0 0 70 32" fill="currentColor" xmlns="http://www.w3.org/2000/svg">
  <path
    d="M2.20996 26.1813V23.9093L16.034 7.23725H2.40196V4.99725H18.978V7.30125L5.15396 23.9413H18.978V26.1813H2.20996Z"
  ></path>
  <path
    d="M26.709 26.4373C25.1516 26.4373 23.7863 26.0746 22.613 25.3493C21.461 24.6026 20.565 23.5999 19.925 22.3413C19.285 21.0826 18.965 19.6959 18.965 18.1813C18.965 16.6453 19.285 15.2586 19.925 14.0213C20.565 12.7626 21.461 11.7706 22.613 11.0453C23.7863 10.2986 25.1516 9.92525 26.709 9.92525C28.0316 9.92525 29.1623 10.1813 30.101 10.6933C31.061 11.2053 31.8396 11.8986 32.437 12.7733V10.1813H34.837V26.1813H32.437V23.6213C31.8396 24.4746 31.061 25.1573 30.101 25.6693C29.1623 26.1813 28.0316 26.4373 26.709 26.4373ZM27.029 24.2613C28.2236 24.2613 29.2263 23.9839 30.037 23.4293C30.869 22.8746 31.4983 22.1386 31.925 21.2213C32.3516 20.2826 32.565 19.2693 32.565 18.1813C32.565 17.0719 32.3516 16.0586 31.925 15.1413C31.4983 14.2239 30.869 13.4879 30.037 12.9333C29.2263 12.3786 28.2236 12.1013 27.029 12.1013C25.8556 12.1013 24.8423 12.3786 23.989 12.9333C23.1356 13.4879 22.485 14.2239 22.037 15.1413C21.589 16.0586 21.365 17.0719 21.365 18.1813C21.365 19.2693 21.589 20.2826 22.037 21.2213C22.485 22.1386 23.1356 22.8746 23.989 23.4293C24.8423 23.9839 25.8556 24.2613 27.029 24.2613Z"
  ></path>
  <path
    d="M37.7082 26.1813V3.78125H40.1082V18.1173L47.8202 10.1813H51.1802L44.7482 16.4853L51.6602 26.1813H48.7162L43.1162 18.1493L40.1082 21.1253V26.1813H37.7082Z"
  ></path>
  <path
    d="M58.7307 26.4373C57.6427 26.4373 56.608 26.1813 55.6267 25.6693C54.6454 25.1359 53.8454 24.3573 53.2267 23.3333C52.6294 22.2879 52.3307 21.0079 52.3307 19.4933V10.1813H54.7307V19.4293C54.7307 20.8799 55.1467 22.0533 55.9787 22.9493C56.832 23.8239 57.9094 24.2613 59.2107 24.2613C60.1067 24.2613 60.9174 24.0586 61.6427 23.6533C62.368 23.2266 62.944 22.6506 63.3707 21.9253C63.8187 21.1999 64.0427 20.3573 64.0427 19.3973V10.1813H66.4427V26.1813H64.0427V23.6853C63.4667 24.4533 62.7627 25.1039 61.9307 25.6373C61.0987 26.1706 60.032 26.4373 58.7307 26.4373Z"
  ></path>
</svg>
