<svg width="24px" height="24px" fill="black" viewBox="0 0 24 24" xmlns="http://www.w3.org/2000/svg">
  <path
    d="M18.7214 11.6234C18.7121 9.82064 19.5913 8.46143 21.3777 7.45991C20.3777 6.1379 18.87 5.41108 16.8762 5.27087C14.9907 5.13351 12.9288 6.2867 12.1734 6.2867C11.3777 6.2867 9.54799 5.31951 8.11455 5.31951C5.1517 5.36243 2 7.50283 2 11.8609C2 13.1486 2.25387 14.4763 2.76471 15.8498C3.44582 17.6525 5.90093 22.0707 8.4613 21.9991C9.79876 21.9705 10.7461 21.1207 12.4892 21.1207C14.1796 21.1207 15.0557 21.9991 16.548 21.9991C19.13 21.9619 21.3498 17.9444 22 16.1359C18.5356 14.6279 18.7214 11.7178 18.7214 11.6234ZM15.7152 3.55969C17.1672 1.96871 17.0341 0.520791 16.9907 0C15.709 0.0686758 14.2291 0.804079 13.3839 1.71403C12.4551 2.68694 11.9071 3.88877 12.0248 5.24511C13.4087 5.3424 14.6718 4.68426 15.7152 3.55969Z"
  />
</svg>
