<svg width="24px" height="24px" fill="black" viewBox="0 0 24 24" xmlns="http://www.w3.org/2000/svg">
  <path
    d="M11.9844 0C11.8355 0 11.6817 0.00800009 11.5232 0.0210002C7.46203 0.354004 8.5393 4.82806 8.47683 6.31907C8.4038 7.41109 8.18854 8.2721 7.4678 9.33911C6.61733 10.3901 5.42379 12.0891 4.85777 13.8602C4.59061 14.6922 4.46376 15.5442 4.58196 16.3492C4.53813 16.3861 4.50214 16.4321 4.47626 16.4842C4.2264 16.7522 4.04381 17.0842 3.83912 17.3232C3.64789 17.5222 3.37305 17.5902 3.07322 17.7232C2.77243 17.8592 2.44089 17.9922 2.24293 18.4032C2.15644 18.5922 2.11223 18.7972 2.11608 19.0052C2.11608 19.2042 2.14203 19.4052 2.16893 19.5412C2.22467 19.9402 2.28041 20.2692 2.20737 20.5112C1.96809 21.1912 1.9383 21.6563 2.10551 21.9953C2.27272 22.3293 2.61963 22.4653 3.00883 22.5963C3.78723 22.7963 4.84431 22.7313 5.6746 23.1963C6.56447 23.6623 7.4678 23.8663 8.18854 23.6663C8.69401 23.5503 9.12069 23.2023 9.34941 22.7203C9.9135 22.7173 10.5314 22.4513 11.5212 22.3863C12.193 22.3283 13.0338 22.6533 13.9977 22.5863C14.0217 22.7203 14.0582 22.7843 14.1072 22.9193L14.1101 22.9223C14.4859 23.7003 15.1797 24.0543 15.9206 23.9933C16.6615 23.9333 17.4505 23.4573 18.0896 22.6873C18.6959 21.9223 19.7069 21.6032 20.3748 21.1842C20.7092 20.9852 20.9792 20.7152 20.9985 20.3312C21.0206 19.9312 20.8063 19.5202 20.3123 18.9552V18.8582L20.3094 18.8552C20.1461 18.6552 20.0692 18.3202 19.9846 17.9292C19.9029 17.5282 19.8097 17.1432 19.5118 16.8832H19.5089C19.4522 16.8292 19.3907 16.8162 19.3283 16.7482C19.2745 16.7091 19.2112 16.6869 19.1457 16.6842C19.5599 15.4062 19.3994 14.1342 18.9794 12.9901C18.4672 11.5801 17.5716 10.3521 16.8893 9.50711C16.1243 8.5021 15.3748 7.55009 15.3902 6.13907C15.4151 3.98705 15.6169 0.00600007 11.9844 0ZM12.4928 3.40504H12.5053C12.71 3.40504 12.8858 3.46704 13.0665 3.60304C13.2491 3.73804 13.3836 3.93505 13.4874 4.13605C13.5883 4.39505 13.6392 4.59505 13.6469 4.86006C13.6469 4.84006 13.6527 4.82006 13.6527 4.80006V4.90506C13.6506 4.89825 13.6493 4.8912 13.6488 4.88406L13.645 4.86006C13.6431 5.10309 13.594 5.34321 13.5009 5.56606C13.456 5.69145 13.3862 5.80559 13.2962 5.90107C13.2689 5.88507 13.2407 5.87103 13.2116 5.85907C13.1117 5.81407 13.0213 5.79507 12.9387 5.72607C12.8702 5.69768 12.7995 5.67559 12.7273 5.66007C12.7753 5.60006 12.8676 5.52706 12.9031 5.46206C12.9541 5.33406 12.9819 5.19806 12.9877 5.06006V5.04006C12.9899 4.90424 12.97 4.76902 12.9291 4.64005C12.8858 4.50605 12.832 4.44005 12.7532 4.30705C12.6725 4.24105 12.5927 4.17505 12.4966 4.17505H12.4813C12.3919 4.17505 12.3121 4.20505 12.2295 4.30705C12.1382 4.39967 12.0705 4.51444 12.0325 4.64105C11.9814 4.76811 11.9522 4.90349 11.946 5.04106V5.06006C11.9479 5.14906 11.9537 5.23906 11.9652 5.32706C11.7797 5.26006 11.5443 5.19206 11.3819 5.12506C11.3722 5.05882 11.3664 4.99203 11.3646 4.92506V4.90506C11.357 4.64107 11.4063 4.37867 11.5087 4.13705C11.5875 3.91705 11.7317 3.73104 11.922 3.60404C12.0862 3.47448 12.2867 3.40525 12.4928 3.40504ZM9.64635 3.46404H9.68095C9.81741 3.46404 9.94041 3.51204 10.0644 3.59904C10.2047 3.72804 10.3181 3.88705 10.395 4.06405C10.4814 4.26305 10.5295 4.46405 10.542 4.73105V4.73505C10.5487 4.86906 10.5478 4.93506 10.5401 5.00106V5.08106C10.5112 5.08806 10.4863 5.09906 10.4603 5.10506C10.3142 5.16006 10.197 5.24006 10.0826 5.30506C10.0942 5.21506 10.0951 5.12506 10.0855 5.03806V5.02306C10.074 4.89006 10.0471 4.82306 10.0067 4.69005C9.97675 4.58814 9.92177 4.49611 9.8472 4.42305C9.82351 4.40064 9.79574 4.38342 9.76552 4.37243C9.73531 4.36143 9.70328 4.35688 9.67134 4.35905H9.65116C9.58293 4.36505 9.52623 4.39905 9.47241 4.49105C9.41111 4.56848 9.37124 4.66182 9.35709 4.76106C9.33112 4.86885 9.32364 4.98056 9.33499 5.09106V5.10606C9.34652 5.24106 9.37055 5.30606 9.41187 5.44006C9.45607 5.57406 9.50605 5.64007 9.57139 5.70807C9.581 5.71707 9.59061 5.72607 9.60407 5.73207C9.5368 5.78907 9.49163 5.80207 9.43493 5.86807C9.39898 5.90115 9.35574 5.92451 9.30904 5.93607C9.20915 5.8109 9.12068 5.67631 9.04477 5.53406C8.95392 5.32392 8.90332 5.09736 8.89582 4.86706C8.87991 4.64131 8.90601 4.4145 8.9727 4.19905C9.02563 4.00256 9.11836 3.82014 9.24466 3.66404C9.36766 3.53104 9.49451 3.46404 9.64635 3.46404ZM10.9629 5.17006C11.2819 5.17006 11.6673 5.23506 12.1315 5.56906C12.413 5.76907 12.634 5.83807 13.1424 6.03707H13.1453C13.3903 6.17307 13.5345 6.30307 13.6046 6.43607V6.30507C13.6391 6.37779 13.6583 6.45731 13.661 6.53835C13.6636 6.61939 13.6497 6.70009 13.62 6.77508C13.5018 7.08508 13.1242 7.41809 12.5985 7.61709V7.61909C12.3409 7.75409 12.117 7.95209 11.8537 8.08409C11.5885 8.21909 11.2887 8.3761 10.8812 8.3511C10.7348 8.35898 10.5884 8.3362 10.4507 8.2841C10.3443 8.22383 10.241 8.15774 10.1413 8.08609C9.95387 7.95109 9.79242 7.75409 9.55313 7.62109V7.61609H9.54833C9.16394 7.37009 8.95636 7.10408 8.88909 6.90608C8.82183 6.63808 8.88429 6.43607 9.07456 6.30607C9.28982 6.17107 9.43974 6.03507 9.53872 5.97007C9.63866 5.89607 9.67614 5.86807 9.70785 5.83907H9.70978V5.83607C9.87218 5.63407 10.1288 5.36606 10.516 5.23506C10.6496 5.19906 10.7986 5.17006 10.9639 5.17006H10.9629ZM13.6537 7.31208C13.9977 8.7291 14.803 10.7871 15.321 11.7851C15.5958 12.3191 16.1426 13.4442 16.38 14.8092C16.5299 14.8042 16.6971 14.8272 16.8729 14.8732C17.4937 13.2022 16.3483 11.4061 15.8264 10.9071C15.615 10.7071 15.6035 10.5721 15.7082 10.5721C16.2752 11.1061 17.02 12.1441 17.29 13.3292C17.4149 13.8642 17.4438 14.4332 17.3102 14.9992C17.3746 15.0272 17.4399 15.0592 17.5072 15.0662C18.4989 15.6002 18.8651 16.0042 18.6892 16.6032V16.5602C18.6316 16.5572 18.5739 16.5602 18.5162 16.5602H18.5009C18.646 16.0932 18.326 15.7352 17.4774 15.3362C16.5981 14.9362 15.8956 15.0002 15.7765 15.8012C15.7688 15.8442 15.764 15.8672 15.7592 15.9362C15.6938 15.9592 15.6256 15.9892 15.5583 16.0002C15.1451 16.2682 14.9222 16.6692 14.7963 17.1872C14.6713 17.7202 14.6329 18.3432 14.5993 19.0562V19.0592C14.58 19.3932 14.4359 19.8972 14.2927 20.4092C12.8512 21.4812 10.8524 21.9473 9.15336 20.7432C9.04674 20.5493 8.91694 20.3702 8.76705 20.2102C8.69543 20.0861 8.60635 19.9739 8.50278 19.8772C8.67768 19.8772 8.82759 19.8472 8.94964 19.8102C9.08783 19.7435 9.19593 19.6239 9.25139 19.4762C9.35517 19.2092 9.25139 18.7792 8.91985 18.3132C8.58831 17.8462 8.02517 17.3182 7.20161 16.7922C6.59619 16.3922 6.25408 15.9222 6.09647 15.3962C5.93791 14.8622 5.95905 14.3112 6.08206 13.7512C6.3175 12.6811 6.921 11.6411 7.30635 10.9881C7.40918 10.9231 7.34191 11.1231 6.91427 11.9621C6.53372 12.7131 5.81875 14.4592 6.79703 15.8162C6.83399 14.8261 7.04471 13.8513 7.41879 12.9401C7.96078 11.6621 9.09378 9.43611 9.18316 7.67209C9.22928 7.70809 9.39169 7.80709 9.46088 7.87409C9.67037 8.00709 9.82605 8.20709 10.0279 8.3391C10.2297 8.5401 10.4862 8.6741 10.8697 8.6741C10.9072 8.6771 10.9418 8.6801 10.9754 8.6801C11.3713 8.6801 11.6769 8.5461 11.9335 8.4121C12.2122 8.2781 12.4332 8.07809 12.6446 8.01209H12.6494C13.0982 7.87709 13.4518 7.61009 13.6527 7.31208H13.6537ZM15.7534 16.2702C15.789 16.8702 16.083 17.5152 16.601 17.6472C17.1661 17.7812 17.979 17.3142 18.3221 16.8822L18.5249 16.8722C18.8276 16.8652 19.0794 16.8822 19.3388 17.1402L19.3417 17.1432C19.5416 17.3422 19.6348 17.6732 19.7175 18.0192C19.7991 18.4192 19.8655 18.7992 20.1105 19.0852C20.5775 19.6122 20.7303 19.9912 20.7217 20.2252L20.7246 20.2182V20.2362L20.7217 20.2252C20.7073 20.4872 20.5439 20.6202 20.2431 20.8192C19.6377 21.2202 18.5652 21.5312 17.882 22.3893C17.2881 23.1263 16.5654 23.5293 15.9254 23.5803C15.2873 23.6333 14.7367 23.3803 14.4128 22.6823L14.408 22.6793C14.2062 22.2793 14.2927 21.6543 14.4618 20.9892C14.631 20.3212 14.8731 19.6452 14.9068 19.0922C14.9423 18.3782 14.9798 17.7572 15.0942 17.2782C15.2095 16.8132 15.3902 16.4812 15.7102 16.2942L15.7534 16.2722V16.2702ZM5.36132 16.3192H5.37093C5.42186 16.3192 5.47184 16.3242 5.52181 16.3332C5.88314 16.3882 6.20026 16.6662 6.50489 17.0852L7.37939 18.7492L7.38227 18.7522C7.61579 19.2852 8.10685 19.8162 8.52488 20.3892C8.94195 20.9872 9.26484 21.5202 9.22544 21.9593V21.9653C9.17066 22.7093 8.76417 23.1133 8.14433 23.2593C7.5245 23.3943 6.68364 23.2613 5.84278 22.7953C4.91254 22.2593 3.80741 22.3263 3.09724 22.1933C2.74264 22.1273 2.51104 21.9933 2.40245 21.7933C2.29674 21.5932 2.29386 21.1912 2.52065 20.5632V20.5592L2.52258 20.5562C2.63501 20.2222 2.5514 19.8042 2.49663 19.4382C2.44377 19.0372 2.41687 18.7282 2.53795 18.4982C2.69171 18.1642 2.9185 18.0982 3.20103 17.9652C3.48356 17.8302 3.81606 17.7632 4.08033 17.4952H4.08225V17.4932C4.32826 17.2252 4.50989 16.8922 4.72419 16.6552C4.90678 16.4542 5.08936 16.3192 5.36132 16.3192ZM12.241 7.24508C11.823 7.44609 11.3329 7.78009 10.8111 7.78009C10.2902 7.78009 9.87891 7.51309 9.581 7.31408C9.43301 7.18008 9.31193 7.04608 9.22256 6.97908C9.06495 6.84508 9.08417 6.64608 9.15144 6.64608C9.25619 6.66208 9.27541 6.78008 9.34268 6.84608C9.43493 6.91208 9.54929 7.04608 9.68863 7.17908C9.96924 7.37909 10.3421 7.64609 10.8101 7.64609C11.2762 7.64609 11.822 7.37909 12.1536 7.18008C12.3409 7.04508 12.5812 6.84608 12.7763 6.71308C12.9262 6.57708 12.9195 6.44607 13.0444 6.44607C13.1674 6.46207 13.0771 6.58008 12.9031 6.77808C12.69 6.94583 12.4686 7.10203 12.24 7.24608L12.241 7.24508ZM11.2012 5.66207V5.64007C11.1955 5.62006 11.2137 5.59806 11.2291 5.59006C11.3002 5.54706 11.4021 5.56306 11.4789 5.59406C11.5395 5.59406 11.6327 5.66107 11.6231 5.72907C11.6173 5.77807 11.5414 5.79507 11.4934 5.79507C11.4405 5.79507 11.405 5.75207 11.3579 5.72707C11.3079 5.70907 11.2176 5.71907 11.2012 5.66207ZM10.6717 5.66207C10.6525 5.72007 10.5631 5.71107 10.5122 5.72807C10.467 5.75307 10.4296 5.79607 10.3777 5.79607C10.3296 5.79607 10.2527 5.77607 10.247 5.72807C10.2374 5.66207 10.3315 5.59506 10.3911 5.59506C10.468 5.56406 10.5679 5.54806 10.64 5.59006C10.6583 5.59906 10.6746 5.62006 10.6688 5.64007V5.66007H10.6717V5.66207Z"
  />
</svg>
