<svg width="32" height="32" viewBox="0 0 32 32" fill="currentColor" xmlns="http://www.w3.org/2000/svg">
  <path
    d="M23.2045 7.20402C23.6438 6.76468 24.357 6.76468 24.7963 7.20402C25.2356 7.64336 25.2356 8.35647 24.7963 8.79581L8.7963 24.7958C8.35696 25.2352 7.64384 25.2352 7.2045 24.7958C6.76517 24.3565 6.76517 23.6434 7.2045 23.204L23.2045 7.20402Z"
  ></path>
  <path
    d="M22.875 23V9.125H9C8.37868 9.125 7.875 8.62132 7.875 8C7.875 7.37868 8.37868 6.875 9 6.875H24C24.6213 6.875 25.125 7.37868 25.125 8V23C25.125 23.6213 24.6213 24.125 24 24.125C23.3787 24.125 22.875 23.6213 22.875 23Z"
  ></path>
</svg>
