<svg width="32" height="32" viewBox="0 0 32 32" fill="currentColor" xmlns="http://www.w3.org/2000/svg">
  <path
    d="M3.31168 16L8.63687 24.875H26.8752V7.125H8.63687L3.31168 16ZM29.1252 25C29.1252 25.5636 28.9016 26.1044 28.5031 26.5029C28.1046 26.9014 27.5637 27.125 27.0002 27.125H8.56656C8.19977 27.1251 7.83894 27.0302 7.51968 26.8496C7.2005 26.669 6.93318 26.4091 6.74429 26.0947L1.03531 16.5791C0.821564 16.2228 0.821564 15.7772 1.03531 15.4209L6.74429 5.90625C6.93318 5.59191 7.2005 5.33097 7.51968 5.15039C7.83895 4.96982 8.19977 4.87492 8.56656 4.875H27.0002C27.4933 4.875 27.9687 5.04658 28.3468 5.35645L28.5031 5.49707L28.6437 5.65332C28.9536 6.03147 29.1252 6.50683 29.1252 7V25Z"
  ></path>
  <path
    d="M19.2045 12.204C19.6438 11.7647 20.357 11.7647 20.7963 12.204C21.2356 12.6434 21.2356 13.3565 20.7963 13.7958L14.7963 19.7958C14.357 20.2352 13.6438 20.2352 13.2045 19.7958C12.7652 19.3565 12.7652 18.6434 13.2045 18.204L19.2045 12.204Z"
  ></path>
  <path
    d="M13.2045 12.204C13.6438 11.7647 14.357 11.7647 14.7963 12.204L20.7963 18.204C21.2356 18.6434 21.2356 19.3565 20.7963 19.7958C20.357 20.2352 19.6438 20.2352 19.2045 19.7958L13.2045 13.7958C12.7652 13.3565 12.7652 12.6434 13.2045 12.204Z"
  ></path>
</svg>
