<svg width="32" height="32" viewBox="0 0 32 32" fill="currentColor" xmlns="http://www.w3.org/2000/svg">
  <path
    d="M14.7927 2.88905C15.41 2.81926 15.967 3.26385 16.0368 3.88123C16.1064 4.49843 15.6628 5.05553 15.0456 5.12538C12.9633 5.36076 10.9911 6.18529 9.36199 7.5033C7.73289 8.82132 6.51425 10.5776 5.8493 12.5648C4.93154 15.2991 5.13717 18.2871 6.42156 20.8695C7.70599 23.4518 9.96379 25.4185 12.6979 26.3363C15.4322 27.2541 18.4193 27.0475 21.0016 25.7631C23.5841 24.4786 25.5507 22.221 26.4684 19.4867L26.4694 19.4857C27.138 17.4999 27.2253 15.3643 26.7214 13.3305C26.2174 11.2964 25.1423 9.4483 23.6237 8.00428C23.1739 7.57622 23.156 6.86461 23.5837 6.41444C24.0118 5.96418 24.7242 5.94625 25.1745 6.3744C27.0036 8.11376 28.2979 10.3395 28.905 12.7894C29.512 15.2393 29.4066 17.8115 28.6013 20.2035C27.4935 23.5032 25.1201 26.2276 22.0036 27.7777C18.8869 29.3279 15.2821 29.5768 11.9821 28.4691C8.68222 27.3614 5.9571 24.9881 4.40692 21.8715C2.85693 18.7551 2.60914 15.1507 3.71649 11.851C4.51747 9.45736 5.98467 7.34185 7.94695 5.75428C9.9093 4.16667 12.2845 3.17257 14.7927 2.88905Z"
  ></path>
</svg>
