<svg width="32" height="32" viewBox="0 0 32 32" fill="currentColor" xmlns="http://www.w3.org/2000/svg">
  <path
    d="M14.875 20V6C14.875 5.37868 15.3787 4.875 16 4.875C16.6213 4.875 17.125 5.37868 17.125 6V20C17.125 20.6213 16.6213 21.125 16 21.125C15.3787 21.125 14.875 20.6213 14.875 20Z"
  ></path>
  <path
    d="M3.875 18C3.875 17.3787 4.37868 16.875 5 16.875C5.62132 16.875 6.125 17.3787 6.125 18V24.875H25.875V18C25.875 17.3787 26.3787 16.875 27 16.875C27.6213 16.875 28.125 17.3787 28.125 18V26C28.125 26.6213 27.6213 27.125 27 27.125H5C4.37868 27.125 3.875 26.6213 3.875 26V18Z"
  ></path>
  <path
    d="M20.2045 14.204C20.6438 13.7647 21.357 13.7647 21.7963 14.204C22.2356 14.6434 22.2356 15.3565 21.7963 15.7958L16.7963 20.7958C16.357 21.2352 15.6438 21.2352 15.2045 20.7958L10.2045 15.7958C9.76517 15.3565 9.76517 14.6434 10.2045 14.204C10.6438 13.7647 11.357 13.7647 11.7963 14.204L16.0004 18.4081L20.2045 14.204Z"
  ></path>
</svg>
