<svg width="32" height="32" viewBox="0 0 32 32" fill="currentColor" xmlns="http://www.w3.org/2000/svg">
  <path
    d="M16 0.875C17.6245 0.875 19.1824 1.52029 20.3311 2.66895C21.4797 3.81761 22.125 5.37555 22.125 7V9.875H26C27.1736 9.875 28.125 10.8264 28.125 12V26C28.125 27.1736 27.1736 28.125 26 28.125H6C4.82639 28.125 3.875 27.1736 3.875 26V12C3.875 10.8264 4.82639 9.875 6 9.875H9.875V7C9.875 5.37555 10.5203 3.81761 11.6689 2.66895C12.8176 1.52029 14.3755 0.875 16 0.875ZM16 14C15.2924 14.0001 14.6074 14.2509 14.0664 14.707C13.5255 15.1632 13.1626 15.7958 13.043 16.4932C12.9234 17.1906 13.0541 17.9082 13.4121 18.5186C13.7702 19.1289 14.3329 19.5932 15 19.8291V23C15 23.2652 15.1055 23.5195 15.293 23.707C15.4805 23.8945 15.7349 23.9999 16 24C16.2652 24 16.5195 23.8945 16.707 23.707C16.8946 23.5195 17 23.2652 17 23V19.8291C17.6671 19.5932 18.2298 19.1289 18.5879 18.5186C18.9459 17.9082 19.0766 17.1906 18.957 16.4932C18.8374 15.7957 18.4746 15.1632 17.9336 14.707C17.3925 14.251 16.7076 14 16 14ZM16 3.125C14.9723 3.125 13.9865 3.53306 13.2598 4.25977C12.5331 4.98647 12.125 5.97229 12.125 7V9.875H19.875V7C19.875 5.97229 19.4669 4.98647 18.7402 4.25977C18.0135 3.53306 17.0277 3.125 16 3.125Z"
  ></path>
</svg>
