<svg width="32" height="32" viewBox="0 0 32 32" fill="currentColor" xmlns="http://www.w3.org/2000/svg">
  <path
    d="M27.2778 13C29.8858 13 32 15.1142 32 17.7222V25.2778C32 27.8858 29.8858 30 27.2778 30H19.7222C17.1142 30 15 27.8858 15 25.2778V17.7222C15 15.1142 17.1142 13 19.7222 13H27.2778ZM23.5 15.8333C22.9787 15.8333 22.5556 16.2564 22.5556 16.7778V20.5556H18.7778C18.2564 20.5556 17.8333 20.9787 17.8333 21.5C17.8333 22.0213 18.2564 22.4444 18.7778 22.4444H22.5556V26.2222C22.5556 26.7436 22.9787 27.1667 23.5 27.1667C24.0213 27.1667 24.4444 26.7436 24.4444 26.2222V22.4444H28.2222C28.7436 22.4444 29.1667 22.0213 29.1667 21.5C29.1667 20.9787 28.7436 20.5556 28.2222 20.5556H24.4444V16.7778C24.4444 16.2564 24.0213 15.8333 23.5 15.8333Z"
  ></path>
  <path
    d="M26 9.5C26 10.1213 25.4963 10.625 24.875 10.625C24.2537 10.625 23.75 10.1213 23.75 9.5V8.25H13.125C12.8817 8.25 12.6449 8.17129 12.4502 8.02539L8.75 5.25H2.25V21.7515H11.375C11.9963 21.7515 12.5 22.2552 12.5 22.8765C12.5 23.4978 11.9963 24.0015 11.375 24.0015H2.125C1.56142 24.0015 1.02059 23.7779 0.62207 23.3794C0.223556 22.9809 0 22.4401 0 21.8765V5.125C0 4.56141 0.223556 4.02058 0.62207 3.62207L0.77832 3.48145C1.15647 3.17158 1.63183 3 2.125 3H8.79102C9.19329 3 9.58649 3.11384 9.9248 3.32715L10.0664 3.4248L13.5 6H23.875C24.3682 6 24.8435 6.17158 25.2217 6.48145L25.3779 6.62207L25.5186 6.77832C25.8284 7.15647 26 7.63183 26 8.125V9.5Z"
  ></path>
</svg>
