<svg width="32" height="32" viewBox="0 0 32 32" fill="currentColor" xmlns="http://www.w3.org/2000/svg">
  <path
    d="M29 11V25.1112C28.9993 25.612 28.8001 26.092 28.4461 26.4461C28.092 26.8001 27.612 26.9993 27.1112 27H5C4.46957 27 3.96086 26.7893 3.58579 26.4142C3.21071 26.0391 3 25.5304 3 25V8C3 7.46957 3.21071 6.96086 3.58579 6.58579C3.96086 6.21071 4.46957 6 5 6H11.6663C12.0988 6.00107 12.5196 6.14132 12.8663 6.4L16.3337 9H27C27.5304 9 28.0391 9.21071 28.4142 9.58579C28.7893 9.96086 29 10.4696 29 11Z"
  ></path>
</svg>
