<svg width="32" height="32" viewBox="0 0 32 32" fill="currentColor" xmlns="http://www.w3.org/2000/svg">
  <path
    d="M7 23.1248V20.1248C7 19.296 7.32899 18.5009 7.91504 17.9148C8.50109 17.3288 9.2962 16.9998 10.125 16.9998H21.875C22.1071 16.9998 22.33 16.908 22.4941 16.7439C22.6582 16.5798 22.75 16.3569 22.75 16.1248V12.625C22.75 12.0037 23.2537 11.5 23.875 11.5C24.4963 11.5 25 12.0037 25 12.625V16.1248C25 16.9536 24.671 17.7487 24.085 18.3348C23.4989 18.9208 22.7038 19.2498 21.875 19.2498H10.125C9.89294 19.2498 9.66995 19.3416 9.50586 19.5056C9.34176 19.6697 9.25 19.8927 9.25 20.1248V23.1248C9.25 23.7461 8.74632 24.2498 8.125 24.2498C7.50368 24.2498 7 23.7461 7 23.1248Z"
  ></path>
  <path
    d="M7 23.1252V9.125C7 8.50368 7.50368 8 8.125 8C8.74632 8 9.25 8.50368 9.25 9.125V23.1252C9.25 23.7465 8.74632 24.2502 8.125 24.2502C7.50368 24.2502 7 23.7465 7 23.1252Z"
  ></path>
  <path
    d="M10 6.125C10 5.08947 9.16053 4.25 8.125 4.25C7.08947 4.25 6.25 5.08947 6.25 6.125C6.25 7.16053 7.08947 8 8.125 8C9.16053 8 10 7.16053 10 6.125ZM12.25 6.125C12.25 8.40317 10.4032 10.25 8.125 10.25C5.84683 10.25 4 8.40317 4 6.125C4 3.84683 5.84683 2 8.125 2C10.4032 2 12.25 3.84683 12.25 6.125Z"
  ></path>
  <path
    d="M25.75 9.625C25.75 8.58947 24.9105 7.75 23.875 7.75C22.8395 7.75 22 8.58947 22 9.625C22 10.6605 22.8395 11.5 23.875 11.5C24.9105 11.5 25.75 10.6605 25.75 9.625ZM28 9.625C28 11.9032 26.1532 13.75 23.875 13.75C21.5968 13.75 19.75 11.9032 19.75 9.625C19.75 7.34683 21.5968 5.5 23.875 5.5C26.1532 5.5 28 7.34683 28 9.625Z"
  ></path>
  <path
    d="M10 26.125C10 25.0895 9.16053 24.25 8.125 24.25C7.08947 24.25 6.25 25.0895 6.25 26.125C6.25 27.1605 7.08947 28 8.125 28C9.16053 28 10 27.1605 10 26.125ZM12.25 26.125C12.25 28.4032 10.4032 30.25 8.125 30.25C5.84683 30.25 4 28.4032 4 26.125C4 23.8468 5.84683 22 8.125 22C10.4032 22 12.25 23.8468 12.25 26.125Z"
  ></path>
</svg>
