<svg width="32" height="32" viewBox="0 0 32 32" fill="currentColor" xmlns="http://www.w3.org/2000/svg">
  <path
    d="M26.875 16C26.875 9.9939 22.0061 5.125 16 5.125C9.9939 5.125 5.125 9.9939 5.125 16C5.125 22.0061 9.9939 26.875 16 26.875C22.0061 26.875 26.875 22.0061 26.875 16ZM29.125 16C29.125 23.2487 23.2487 29.125 16 29.125C8.75126 29.125 2.875 23.2487 2.875 16C2.875 8.75126 8.75126 2.875 16 2.875C23.2487 2.875 29.125 8.75126 29.125 16Z"
  ></path>
  <path
    d="M17.125 20.8818C17.6875 20.944 18.125 21.4209 18.125 22C18.125 22.6213 17.6213 23.125 17 23.125C16.4364 23.125 15.8956 22.9014 15.4971 22.5029C15.0986 22.1044 14.875 21.5636 14.875 21V16.1172C14.3126 16.055 13.875 15.579 13.875 15C13.875 14.3787 14.3787 13.875 15 13.875C15.4932 13.875 15.9685 14.0466 16.3467 14.3564L16.5029 14.4971L16.6436 14.6533C16.9534 15.0315 17.125 15.5068 17.125 16V20.8818Z"
  ></path>
  <path
    d="M15.5 12C16.3284 12 17 11.3284 17 10.5C17 9.67157 16.3284 9 15.5 9C14.6716 9 14 9.67157 14 10.5C14 11.3284 14.6716 12 15.5 12Z"
  ></path>
</svg>
