<svg width="32" height="32" viewBox="0 0 32 32" fill="currentColor" xmlns="http://www.w3.org/2000/svg">
  <path
    d="M27 6.5C27.5523 6.5 28 6.94772 28 7.5C28 8.05228 27.5523 8.5 27 8.5H4C3.44772 8.5 3 8.05228 3 7.5C3 6.94772 3.44772 6.5 4 6.5H27Z"
  ></path>
  <path
    d="M13 15C13.5523 15 14 15.4477 14 16C14 16.5523 13.5523 17 13 17H4C3.44772 17 3 16.5523 3 16C3 15.4477 3.44772 15 4 15H13Z"
  ></path>
  <path
    d="M16 23.5C16.5523 23.5 17 23.9477 17 24.5C17 25.0523 16.5523 25.5 16 25.5H4C3.44772 25.5 3 25.0523 3 24.5C3 23.9477 3.44772 23.5 4 23.5H16Z"
  ></path>
  <path
    d="M25 17C25 15.3431 23.6569 14 22 14C20.3431 14 19 15.3431 19 17C19 18.6569 20.3431 20 22 20C23.6569 20 25 18.6569 25 17ZM27 17C27 19.7614 24.7614 22 22 22C19.2386 22 17 19.7614 17 17C17 14.2386 19.2386 12 22 12C24.7614 12 27 14.2386 27 17Z"
  ></path>
  <path
    d="M24.2929 19.2929C24.6834 18.9024 25.3164 18.9024 25.707 19.2929L28.8779 22.4638C29.2684 22.8543 29.2684 23.4873 28.8779 23.8779C28.4873 24.2684 27.8543 24.2684 27.4638 23.8779L24.2929 20.707C23.9024 20.3164 23.9024 19.6834 24.2929 19.2929Z"
  ></path>
</svg>
