<svg width="32" height="32" viewBox="0 0 32 32" fill="currentColor" xmlns="http://www.w3.org/2000/svg">
  <path
    d="M9.2045 14.204C9.64384 13.7647 10.357 13.7647 10.7963 14.204C11.2356 14.6434 11.2356 15.3565 10.7963 15.7958L5.5922 20.9999L10.7963 26.204C11.2356 26.6434 11.2356 27.3565 10.7963 27.7958C10.357 28.2352 9.64384 28.2352 9.2045 27.7958L3.2045 21.7958C2.76517 21.3565 2.76517 20.6434 3.2045 20.204L9.2045 14.204Z"
  ></path>
  <path
    d="M26.875 14C26.875 13.0996 26.8285 12.146 26.6426 11.2832C26.455 10.4127 26.1468 9.73861 25.7041 9.2959C25.2614 8.85318 24.5873 8.54499 23.7168 8.35742C22.854 8.17154 21.9004 8.125 21 8.125H19C18.3787 8.125 17.875 7.62132 17.875 7C17.875 6.37868 18.3787 5.875 19 5.875H21C21.9559 5.875 23.0957 5.92237 24.1904 6.1582C25.2776 6.39245 26.4259 6.83406 27.2959 7.7041C28.1659 8.57414 28.6076 9.72241 28.8418 10.8096C29.0776 11.9043 29.125 13.0441 29.125 14C29.125 14.9559 29.0776 16.0957 28.8418 17.1904C28.6076 18.2776 28.1659 19.4259 27.2959 20.2959C26.4259 21.1659 25.2776 21.6076 24.1904 21.8418C23.0957 22.0776 21.9559 22.125 21 22.125H4C3.37868 22.125 2.875 21.6213 2.875 21C2.875 20.3787 3.37868 19.875 4 19.875H21C21.9004 19.875 22.854 19.8285 23.7168 19.6426C24.5873 19.455 25.2614 19.1468 25.7041 18.7041C26.1468 18.2614 26.455 17.5873 26.6426 16.7168C26.8285 15.854 26.875 14.9004 26.875 14Z"
  ></path>
</svg>
