<svg width="32" height="32" viewBox="0 0 32 32" fill="currentColor" xmlns="http://www.w3.org/2000/svg">
  <path
    d="M8.48529 14.9795H11.0103C11.5739 14.9795 12.0309 15.4365 12.0309 16.0001V24.9588H19.9691V16.0001C19.9691 15.4365 20.4261 14.9795 20.9897 14.9795H23.5147L16 7.46494L8.48529 14.9795ZM22.0104 25.1475C22.0104 25.6387 21.8155 26.1104 21.4681 26.4578C21.1208 26.8052 20.6491 27 20.1578 27H11.8422C11.3509 27 10.8792 26.8052 10.5319 26.4578C10.1845 26.1104 9.98965 25.6387 9.98965 25.1475V17.0207H6.02055C5.60782 17.0207 5.23591 16.7721 5.07788 16.3908C4.91991 16.0094 5.00659 15.57 5.29849 15.2781L15.2779 5.2988L15.3559 5.22881C15.7568 4.90203 16.3484 4.9252 16.7221 5.2988L26.7015 15.2781C26.9934 15.57 27.0801 16.0094 26.9221 16.3908C26.7641 16.7721 26.3922 17.0207 25.9795 17.0207H22.0104V25.1475Z"
  ></path>
</svg>
