<svg width="32" height="32" viewBox="0 0 32 32" fill="currentColor" xmlns="http://www.w3.org/2000/svg">
  <path
    d="M6.125 25.875H25.875V6.125H6.125V25.875ZM28.125 26C28.125 27.1736 27.1736 28.125 26 28.125H6C4.82639 28.125 3.875 27.1736 3.875 26V6C3.875 4.82639 4.82639 3.875 6 3.875H26C27.1736 3.875 28.125 4.82639 28.125 6V26Z"
  ></path>
  <path
    d="M18.75 16.0112C18.75 17.53 17.5188 18.7612 16 18.7612C14.4812 18.7612 13.25 17.53 13.25 16.0112C13.25 14.4924 14.4812 13.2612 16 13.2612C17.5188 13.2612 18.75 14.4924 18.75 16.0112Z"
  ></path>
</svg>
