<svg width="32" height="32" viewBox="0 0 32 32" fill="currentColor" xmlns="http://www.w3.org/2000/svg">
  <path
    d="M27 5.875C27.6213 5.875 28.125 6.37868 28.125 7C28.125 7.62132 27.6213 8.125 27 8.125H5C4.37868 8.125 3.875 7.62132 3.875 7C3.875 6.37868 4.37868 5.875 5 5.875H27Z"
  ></path>
  <path
    d="M11.875 21V13C11.875 12.3787 12.3787 11.875 13 11.875C13.6213 11.875 14.125 12.3787 14.125 13V21C14.125 21.6213 13.6213 22.125 13 22.125C12.3787 22.125 11.875 21.6213 11.875 21Z"
  ></path>
  <path
    d="M17.875 21V13C17.875 12.3787 18.3787 11.875 19 11.875C19.6213 11.875 20.125 12.3787 20.125 13V21C20.125 21.6213 19.6213 22.125 19 22.125C18.3787 22.125 17.875 21.6213 17.875 21Z"
  ></path>
  <path
    d="M26.125 26C26.125 26.5636 25.9014 27.1044 25.5029 27.5029C25.1044 27.9014 24.5636 28.125 24 28.125H8C7.43642 28.125 6.89559 27.9014 6.49707 27.5029C6.09856 27.1044 5.875 26.5636 5.875 26V7C5.875 6.37868 6.37868 5.875 7 5.875C7.62132 5.875 8.125 6.37868 8.125 7V25.875H23.875V7C23.875 6.37868 24.3787 5.875 25 5.875C25.6213 5.875 26.125 6.37868 26.125 7V26Z"
  ></path>
  <path
    d="M19.875 7V5C19.875 4.76794 19.7832 4.54495 19.6191 4.38086C19.455 4.21676 19.2321 4.125 19 4.125H13C12.7679 4.125 12.545 4.21676 12.3809 4.38086C12.2168 4.54495 12.125 4.76794 12.125 5V7C12.125 7.62132 11.6213 8.125 11 8.125C10.3787 8.125 9.875 7.62132 9.875 7V5C9.875 4.1712 10.204 3.37609 10.79 2.79004C11.3761 2.20399 12.1712 1.875 13 1.875H19C19.8288 1.875 20.6239 2.20399 21.21 2.79004C21.796 3.37609 22.125 4.1712 22.125 5V7C22.125 7.62132 21.6213 8.125 21 8.125C20.3787 8.125 19.875 7.62132 19.875 7Z"
  ></path>
</svg>
