<svg width="32" height="32" viewBox="0 0 32 32" fill="currentColor" xmlns="http://www.w3.org/2000/svg">
  <path
    d="M21.2045 21.204C21.6438 20.7647 22.357 20.7647 22.7963 21.204C23.2356 21.6434 23.2356 22.3565 22.7963 22.7958L16.7963 28.7958C16.357 29.2352 15.6438 29.2352 15.2045 28.7958L9.2045 22.7958C8.76517 22.3565 8.76517 21.6434 9.2045 21.204C9.64384 20.7647 10.357 20.7647 10.7963 21.204L16.0004 26.4081L21.2045 21.204Z"
  ></path>
  <path
    d="M15.2904 3.12673C15.7323 2.76652 16.3845 2.79206 16.7963 3.20388L22.7963 9.20388C23.2356 9.64322 23.2356 10.3563 22.7963 10.7957C22.357 11.235 21.6438 11.235 21.2045 10.7957L16.0004 5.59157L10.7963 10.7957C10.357 11.235 9.64384 11.235 9.2045 10.7957C8.76517 10.3563 8.76517 9.64322 9.2045 9.20388L15.2045 3.20388L15.2904 3.12673Z"
  ></path>
</svg>
