<svg width="32" height="32" viewBox="0 0 32 32" fill="currentColor" xmlns="http://www.w3.org/2000/svg">
  <path
    d="M24.2045 6.20402C24.6438 5.76468 25.357 5.76468 25.7963 6.20402C26.2356 6.64336 26.2356 7.35647 25.7963 7.79581L7.7963 25.7958C7.35696 26.2352 6.64384 26.2352 6.2045 25.7958C5.76517 25.3565 5.76517 24.6434 6.2045 24.204L24.2045 6.20402Z"
  ></path>
  <path
    d="M6.2045 6.20402C6.64384 5.76468 7.35696 5.76468 7.7963 6.20402L25.7963 24.204C26.2356 24.6434 26.2356 25.3565 25.7963 25.7958C25.357 26.2352 24.6438 26.2352 24.2045 25.7958L6.2045 7.79581C5.76517 7.35647 5.76517 6.64336 6.2045 6.20402Z"
  ></path>
</svg>
