<svg width="32" height="32" viewBox="0 0 32 32" fill="currentColor" xmlns="http://www.w3.org/2000/svg">
  <path
    d="M22.5 4.875C23.7266 4.875 24.9032 5.36214 25.7705 6.22949C26.6379 7.09685 27.125 8.27337 27.125 9.5C27.125 10.7266 26.6379 11.9032 25.7705 12.7705C24.9032 13.6379 23.7266 14.125 22.5 14.125H20.125V17.875H22.5C23.7266 17.875 24.9032 18.3621 25.7705 19.2295C26.6379 20.0968 27.125 21.2734 27.125 22.5C27.125 23.7266 26.6379 24.9032 25.7705 25.7705C24.9032 26.6379 23.7266 27.125 22.5 27.125C21.2734 27.125 20.0968 26.6379 19.2295 25.7705C18.3621 24.9032 17.875 23.7266 17.875 22.5V20.125H14.125V22.5C14.125 23.7266 13.6379 24.9032 12.7705 25.7705C11.9032 26.6379 10.7266 27.125 9.5 27.125C8.27337 27.125 7.09685 26.6379 6.22949 25.7705C5.36214 24.9032 4.875 23.7266 4.875 22.5C4.875 21.2734 5.36214 20.0968 6.22949 19.2295C7.09685 18.3621 8.27337 17.875 9.5 17.875H11.875V14.125H9.5C8.27337 14.125 7.09685 13.6379 6.22949 12.7705C5.36214 11.9032 4.875 10.7266 4.875 9.5C4.875 8.27337 5.36214 7.09685 6.22949 6.22949C7.09685 5.36214 8.27337 4.875 9.5 4.875C10.7266 4.875 11.9032 5.36214 12.7705 6.22949C13.6379 7.09685 14.125 8.27337 14.125 9.5V11.875H17.875V9.5C17.875 8.27337 18.3621 7.09685 19.2295 6.22949C20.0968 5.36214 21.2734 4.875 22.5 4.875ZM9.5 20.125C8.87011 20.125 8.26571 20.3749 7.82031 20.8203C7.37491 21.2657 7.125 21.8701 7.125 22.5C7.125 23.1299 7.37491 23.7343 7.82031 24.1797C8.26571 24.6251 8.87011 24.875 9.5 24.875C10.1299 24.875 10.7343 24.6251 11.1797 24.1797C11.6251 23.7343 11.875 23.1299 11.875 22.5V20.125H9.5ZM20.125 22.5C20.125 23.1299 20.3749 23.7343 20.8203 24.1797C21.2657 24.6251 21.8701 24.875 22.5 24.875C23.1299 24.875 23.7343 24.6251 24.1797 24.1797C24.6251 23.7343 24.875 23.1299 24.875 22.5C24.875 21.8701 24.6251 21.2657 24.1797 20.8203C23.7343 20.3749 23.1299 20.125 22.5 20.125H20.125V22.5ZM14.125 17.875H17.875V14.125H14.125V17.875ZM9.5 7.125C8.87011 7.125 8.26571 7.37491 7.82031 7.82031C7.37491 8.26571 7.125 8.87011 7.125 9.5C7.125 10.1299 7.37491 10.7343 7.82031 11.1797C8.26571 11.6251 8.87011 11.875 9.5 11.875H11.875V9.5C11.875 8.87011 11.6251 8.26571 11.1797 7.82031C10.7343 7.37491 10.1299 7.125 9.5 7.125ZM22.5 7.125C21.8701 7.125 21.2657 7.37491 20.8203 7.82031C20.3749 8.26571 20.125 8.87011 20.125 9.5V11.875H22.5C23.1299 11.875 23.7343 11.6251 24.1797 11.1797C24.6251 10.7343 24.875 10.1299 24.875 9.5C24.875 8.87011 24.6251 8.26571 24.1797 7.82031C23.7343 7.37491 23.1299 7.125 22.5 7.125Z"
  ></path>
</svg>
