<svg width="32" height="32" viewBox="0 0 32 32" fill="currentColor" xmlns="http://www.w3.org/2000/svg">
  <path
    d="M7.125 26.875H24.875V11.4668L18.5332 5.125H7.125V26.875ZM27.125 27C27.125 27.5636 26.9014 28.1044 26.5029 28.5029C26.1044 28.9014 25.5636 29.125 25 29.125H7C6.43642 29.125 5.89559 28.9014 5.49707 28.5029C5.09856 28.1044 4.875 27.5636 4.875 27V5C4.875 4.43641 5.09856 3.89558 5.49707 3.49707L5.65332 3.35645C6.03147 3.04658 6.50683 2.875 7 2.875H19C19.2984 2.875 19.5849 2.99312 19.7959 3.2041L26.7959 10.2041C27.0069 10.4151 27.125 10.7016 27.125 11V27Z"
  ></path>
  <path
    d="M17.875 4C17.875 3.37868 18.3787 2.875 19 2.875C19.6213 2.875 20.125 3.37868 20.125 4V9.875H26C26.6213 9.875 27.125 10.3787 27.125 11C27.125 11.6213 26.6213 12.125 26 12.125H19C18.3787 12.125 17.875 11.6213 17.875 11V4Z"
  ></path>
</svg>
