<svg width="32" height="32" viewBox="0 0 32 32" fill="currentColor" xmlns="http://www.w3.org/2000/svg">
  <path
    d="M27.2778 13C29.8858 13 32 15.1142 32 17.7222V25.2778C32 27.8858 29.8858 30 27.2778 30H19.7222C17.1142 30 15 27.8858 15 25.2778V17.7222C15 15.1142 17.1142 13 19.7222 13H27.2778ZM23.5 15.8333C22.9787 15.8333 22.5556 16.2564 22.5556 16.7778V20.5556H18.7778C18.2564 20.5556 17.8333 20.9787 17.8333 21.5C17.8333 22.0213 18.2564 22.4444 18.7778 22.4444H22.5556V26.2222C22.5556 26.7436 22.9787 27.1667 23.5 27.1667C24.0213 27.1667 24.4444 26.7436 24.4444 26.2222V22.4444H28.2222C28.7436 22.4444 29.1667 22.0213 29.1667 21.5C29.1667 20.9787 28.7436 20.5556 28.2222 20.5556H24.4444V16.7778C24.4444 16.2564 24.0213 15.8333 23.5 15.8333Z"
  ></path>
  <path
    d="M4.55673 3C5.15592 3 5.64166 3.48573 5.64166 4.08491C5.64166 4.68408 5.15592 5.16981 4.55673 5.16981H2.16987V21.8302H4.55673C5.15592 21.8302 5.64166 22.3159 5.64166 22.9151C5.64166 23.5143 5.15592 24 4.55673 24H1.08493C0.485742 24 0 23.5143 0 22.9151V4.08491C0 3.48573 0.485742 3 1.08493 3H4.55673Z"
  ></path>
  <path
    d="M21.915 3C22.5142 3 23 3.48578 23 4.08496V9.5C23 10.0992 22.5142 10.5849 21.915 10.585C21.3158 10.585 20.8301 10.0992 20.8301 9.5V5.16992H18.4434C17.8442 5.16992 17.3584 4.68411 17.3584 4.08496C17.3584 3.48578 17.8442 3 18.4434 3H21.915Z"
  ></path>
  <path
    d="M14.9717 9.07422C15.5707 9.07422 16.0564 9.5602 16.0566 10.1592C16.0566 10.7584 15.5709 11.2441 14.9717 11.2441H12.585V18.8389C12.585 19.438 12.0992 19.9238 11.5 19.9238C10.9008 19.9238 10.415 19.438 10.415 18.8389V11.2441H8.02832C7.42913 11.2441 6.94336 10.7584 6.94336 10.1592C6.94359 9.5602 7.42927 9.07422 8.02832 9.07422H14.9717Z"
  ></path>
</svg>
