<svg width="32" height="32" viewBox="0 0 32 32" fill="currentColor" xmlns="http://www.w3.org/2000/svg">
  <path
    d="M23 8.875C23.6213 8.875 24.125 9.37868 24.125 10C24.125 10.6213 23.6213 11.125 23 11.125H6C5.37868 11.125 4.875 10.6213 4.875 10C4.875 9.37868 5.37868 8.875 6 8.875H23Z"
  ></path>
  <path
    d="M27 14.875C27.6213 14.875 28.125 15.3787 28.125 16C28.125 16.6213 27.6213 17.125 27 17.125H6C5.37868 17.125 4.875 16.6213 4.875 16C4.875 15.3787 5.37868 14.875 6 14.875H27Z"
  ></path>
  <path
    d="M19 20.875C19.6213 20.875 20.125 21.3787 20.125 22C20.125 22.6213 19.6213 23.125 19 23.125H6C5.37868 23.125 4.875 22.6213 4.875 22C4.875 21.3787 5.37868 20.875 6 20.875H19Z"
  ></path>
</svg>
