<svg width="32" height="32" viewBox="0 0 32 32" fill="currentColor" xmlns="http://www.w3.org/2000/svg">
  <path
    d="M5.125 24.875H26.875V11.125H16C15.7567 11.125 15.5199 11.0463 15.3252 10.9004L11.625 8.125H5.125V24.875ZM29.125 25.1113C29.125 25.6454 28.9128 26.1575 28.5352 26.5352C28.1575 26.9128 27.6454 27.125 27.1113 27.125H5C4.43642 27.125 3.89559 26.9014 3.49707 26.5029C3.09856 26.1044 2.875 25.5636 2.875 25V8C2.875 7.43641 3.09856 6.89558 3.49707 6.49707L3.65332 6.35645C4.03147 6.04658 4.50683 5.875 5 5.875H11.666C12.0683 5.875 12.4615 5.98884 12.7998 6.20215L12.9414 6.2998L16.375 8.875H27C27.4932 8.875 27.9685 9.04658 28.3467 9.35645L28.5029 9.49707L28.6436 9.65332C28.9534 10.0315 29.125 10.5068 29.125 11V25.1113Z"
  ></path>
</svg>
