<svg width="32" height="32" viewBox="0 0 32 32" fill="currentColor" xmlns="http://www.w3.org/2000/svg">
  <path
    d="M11.7969 4.88574C12.2131 4.92728 12.608 5.09057 12.9316 5.35547L13.0879 5.49609L16.4668 8.875H27C27.4932 8.875 27.9685 9.04658 28.3467 9.35645L28.5029 9.49707L28.6436 9.65332C28.9534 10.0315 29.125 10.5068 29.125 11V25.1113C29.125 25.6454 28.9128 26.1575 28.5352 26.5352C28.1575 26.9128 27.6454 27.125 27.1113 27.125H4.91992C4.37815 27.1235 3.85868 26.9075 3.47559 26.5244C3.09249 26.1413 2.87646 25.6219 2.875 25.0801V7C2.875 6.43641 3.09856 5.89558 3.49707 5.49707L3.65332 5.35645C4.03147 5.04658 4.50683 4.875 5 4.875H11.5869L11.7969 4.88574ZM5.125 24.875H26.875V11.125H5.125V24.875ZM5.125 8.875H13.2842L11.5342 7.125H5.125V8.875Z"
  ></path>
</svg>
