<svg width="32" height="32" viewBox="0 0 32 32" fill="currentColor" xmlns="http://www.w3.org/2000/svg">
  <path
    d="M27.7938 14.5776C28.46 14.5776 29 15.1177 29 15.7838C29 16.45 28.46 16.99 27.7938 16.99H4.20619C3.54003 16.99 3 16.45 3 15.7838C3 15.1177 3.54003 14.5776 4.20619 14.5776H27.7938Z"
  ></path>
  <path
    d="M27.7938 6C28.46 6 29 6.54003 29 7.20619C29 7.87235 28.46 8.41238 27.7938 8.41238H4.20619C3.54003 8.41238 3 7.87235 3 7.20619C3 6.54003 3.54003 6 4.20619 6H27.7938Z"
  ></path>
  <path
    d="M27.7938 23.1548C28.46 23.1548 29 23.6948 29 24.361C29 25.0271 28.46 25.5672 27.7938 25.5672H4.20619C3.54003 25.5672 3 25.0271 3 24.361C3 23.6948 3.54003 23.1548 4.20619 23.1548H27.7938Z"
  ></path>
</svg>
