<svg width="32" height="32" viewBox="0 0 32 32" fill="currentColor" xmlns="http://www.w3.org/2000/svg">
  <path
    d="M27 14.875C27.6213 14.875 28.125 15.3787 28.125 16C28.125 16.6213 27.6213 17.125 27 17.125H5C4.37868 17.125 3.875 16.6213 3.875 16C3.875 15.3787 4.37868 14.875 5 14.875H27Z"
  ></path>
  <path
    d="M27 6.875C27.6213 6.875 28.125 7.37868 28.125 8C28.125 8.62132 27.6213 9.125 27 9.125H5C4.37868 9.125 3.875 8.62132 3.875 8C3.875 7.37868 4.37868 6.875 5 6.875H27Z"
  ></path>
  <path
    d="M27 22.875C27.6213 22.875 28.125 23.3787 28.125 24C28.125 24.6213 27.6213 25.125 27 25.125H5C4.37868 25.125 3.875 24.6213 3.875 24C3.875 23.3787 4.37868 22.875 5 22.875H27Z"
  ></path>
</svg>
