<svg width="32" height="32" viewBox="0 0 32 32" fill="currentColor" xmlns="http://www.w3.org/2000/svg">
  <path
    d="M17.875 7C17.875 6.37868 18.3787 5.875 19 5.875C19.6213 5.875 20.125 6.37868 20.125 7V11.875H25C25.6213 11.875 26.125 12.3787 26.125 13C26.125 13.6213 25.6213 14.125 25 14.125H19C18.3787 14.125 17.875 13.6213 17.875 13V7Z"
  ></path>
  <path
    d="M25.2045 5.20402C25.6438 4.76468 26.357 4.76468 26.7963 5.20402C27.2356 5.64336 27.2356 6.35647 26.7963 6.79581L19.7963 13.7958C19.357 14.2352 18.6438 14.2352 18.2045 13.7958C17.7652 13.3565 17.7652 12.6434 18.2045 12.204L25.2045 5.20402Z"
  ></path>
  <path
    d="M11.875 25V20.125H7C6.37868 20.125 5.875 19.6213 5.875 19C5.875 18.3787 6.37868 17.875 7 17.875H13C13.6213 17.875 14.125 18.3787 14.125 19V25C14.125 25.6213 13.6213 26.125 13 26.125C12.3787 26.125 11.875 25.6213 11.875 25Z"
  ></path>
  <path
    d="M12.2045 18.204C12.6438 17.7647 13.357 17.7647 13.7963 18.204C14.2356 18.6434 14.2356 19.3565 13.7963 19.7958L6.7963 26.7958C6.35696 27.2352 5.64384 27.2352 5.2045 26.7958C4.76517 26.3565 4.76517 25.6434 5.2045 25.204L12.2045 18.204Z"
  ></path>
</svg>
