<svg width="32" height="32" viewBox="0 0 32 32" fill="currentColor" xmlns="http://www.w3.org/2000/svg">
  <path
    d="M14.125 8.875H17.875V5.125H14.125V8.875ZM20.125 9C20.125 10.1736 19.1736 11.125 18 11.125H14C12.8264 11.125 11.875 10.1736 11.875 9V5C11.875 3.82639 12.8264 2.875 14 2.875H18C19.1736 2.875 20.125 3.82639 20.125 5V9Z"
  ></path>
  <path
    d="M6.125 25.875H9.875V22.125H6.125V25.875ZM12.125 26C12.125 27.1736 11.1736 28.125 10 28.125H6C4.82639 28.125 3.875 27.1736 3.875 26V22C3.875 20.8264 4.82639 19.875 6 19.875H10C11.1736 19.875 12.125 20.8264 12.125 22V26Z"
  ></path>
  <path
    d="M22.125 25.875H25.875V22.125H22.125V25.875ZM28.125 26C28.125 27.1736 27.1736 28.125 26 28.125H22C20.8264 28.125 19.875 27.1736 19.875 26V22C19.875 20.8264 20.8264 19.875 22 19.875H26C27.1736 19.875 28.125 20.8264 28.125 22V26Z"
  ></path>
  <path
    d="M14.875 15V10C14.875 9.37868 15.3787 8.875 16 8.875C16.6213 8.875 17.125 9.37868 17.125 10V15C17.125 15.6213 16.6213 16.125 16 16.125C15.3787 16.125 14.875 15.6213 14.875 15Z"
  ></path>
  <path
    d="M22.875 21V15C22.875 14.3787 23.3787 13.875 24 13.875C24.6213 13.875 25.125 14.3787 25.125 15V21C25.125 21.6213 24.6213 22.125 24 22.125C23.3787 22.125 22.875 21.6213 22.875 21Z"
  ></path>
  <path
    d="M6.875 21V15C6.875 14.3787 7.37868 13.875 8 13.875C8.62132 13.875 9.125 14.3787 9.125 15V21C9.125 21.6213 8.62132 22.125 8 22.125C7.37868 22.125 6.875 21.6213 6.875 21Z"
  ></path>
  <path
    d="M29 13.875C29.6213 13.875 30.125 14.3787 30.125 15C30.125 15.6213 29.6213 16.125 29 16.125H3C2.37868 16.125 1.875 15.6213 1.875 15C1.875 14.3787 2.37868 13.875 3 13.875H29Z"
  ></path>
</svg>
