<svg width="32" height="32" viewBox="0 0 32 32" fill="currentColor" xmlns="http://www.w3.org/2000/svg">
  <path
    d="M9.50057 3C9.79213 3.00012 10.0721 3.11991 10.2783 3.3329C10.4843 3.54597 10.6005 3.8351 10.6005 4.13631V21.181H13.9004C14.1177 21.1811 14.3308 21.2471 14.5116 21.3719C14.6923 21.4968 14.8333 21.6747 14.9165 21.8823C14.9999 22.0899 15.0211 22.3188 14.9788 22.5393C14.9365 22.7596 14.8317 22.9618 14.6781 23.1207L10.2783 27.666C10.1762 27.7716 10.0551 27.8563 9.92164 27.9134C9.78828 27.9705 9.64493 27.9999 9.50057 28C9.35626 28 9.21284 27.9704 9.0795 27.9134C8.94602 27.8563 8.82393 27.7716 8.7218 27.666L4.32201 23.1207C4.16826 22.9619 4.06377 22.7595 4.02124 22.5393C3.97874 22.3188 4.00027 22.09 4.08354 21.8823C4.16683 21.6747 4.30763 21.4967 4.48851 21.3719C4.66951 21.2471 4.88317 21.1808 5.10078 21.181H8.40062V4.13631C8.40062 3.83494 8.51659 3.546 8.72287 3.3329C8.92914 3.11988 9.2089 3 9.50057 3Z"
  ></path>
  <path
    d="M22.5004 3C22.6448 3.00002 22.7878 3.02975 22.9213 3.08691C23.0548 3.1441 23.1766 3.22736 23.2787 3.33301L27.6781 7.87891C27.8319 8.03776 27.9364 8.24059 27.9789 8.46094C28.0213 8.6813 27.9996 8.90961 27.9164 9.11719C27.8331 9.32493 27.6921 9.50308 27.5111 9.62793C27.3302 9.75268 27.1173 9.81848 26.8998 9.81836H23.6V26.8633C23.6 27.1647 23.484 27.4539 23.2777 27.667C23.0715 27.88 22.792 28 22.5004 28C22.2087 28 21.9283 27.8801 21.7221 27.667C21.5159 27.4539 21.4008 27.1646 21.4008 26.8633V9.81836H18.101C17.8834 9.81854 17.6706 9.75262 17.4896 9.62793C17.3086 9.50308 17.1677 9.32493 17.0844 9.11719C17.0011 8.90961 16.9785 8.68131 17.0209 8.46094C17.0634 8.24051 17.1688 8.03779 17.3226 7.87891L21.7221 3.33301C21.8242 3.22742 21.946 3.14407 22.0795 3.08691C22.2129 3.02981 22.3559 3 22.5004 3Z"
  ></path>
</svg>
