<svg width="32" height="32" viewBox="0 0 32 32" fill="currentColor" xmlns="http://www.w3.org/2000/svg">
  <path
    d="M10.2881 6.875L10.4648 6.88477C10.8124 6.9222 11.1168 7.06629 11.3604 7.26074L11.4775 7.3623L11.5811 7.46777C11.7851 7.69042 11.9276 7.95076 12.0264 8.21191L19.0273 23.8701L19.0293 23.875H26C26.6213 23.875 27.125 24.3787 27.125 25C27.125 25.6213 26.6213 26.125 26 26.125H18.8135C18.3571 26.1246 17.9441 25.9534 17.6211 25.6875C17.3218 25.4411 17.1086 25.1221 16.9727 24.7881L9.97266 9.12988C9.97194 9.12828 9.97141 9.1266 9.9707 9.125H4C3.37868 9.125 2.875 8.62132 2.875 8C2.875 7.37868 3.37868 6.875 4 6.875H10.2881Z"
  ></path>
  <path
    d="M26 6.875C26.6213 6.875 27.125 7.37868 27.125 8C27.125 8.62132 26.6213 9.125 26 9.125H19C18.3787 9.125 17.875 8.62132 17.875 8C17.875 7.37868 18.3787 6.875 19 6.875H26Z"
  ></path>
</svg>
