<svg width="32" height="32" viewBox="0 0 32 32" fill="currentColor" xmlns="http://www.w3.org/2000/svg">
  <path
    d="M20 11C20.6213 11 21.125 11.5037 21.125 12.125C21.125 12.7463 20.6213 13.25 20 13.25H12C11.3787 13.25 10.875 12.7463 10.875 12.125C10.875 11.5037 11.3787 11 12 11H20Z"
  ></path>
  <path
    d="M20 16.5C20.6213 16.5 21.125 17.0037 21.125 17.625C21.125 18.2463 20.6213 18.75 20 18.75H12C11.3787 18.75 10.875 18.2463 10.875 17.625C10.875 17.0037 11.3787 16.5 12 16.5H20Z"
  ></path>
  <path
    d="M5.125 22.875H26.875V7.125H5.125V22.875ZM29.125 23C29.125 23.5636 28.9014 24.1044 28.5029 24.5029C28.1044 24.9014 27.5636 25.125 27 25.125H5C4.43642 25.125 3.89559 24.9014 3.49707 24.5029C3.09856 24.1044 2.875 23.5636 2.875 23V7C2.875 6.43641 3.09856 5.89558 3.49707 5.49707L3.65332 5.35645C4.03147 5.04658 4.50683 4.875 5 4.875H27C27.4932 4.875 27.9685 5.04658 28.3467 5.35645L28.5029 5.49707L28.6436 5.65332C28.9534 6.03147 29.125 6.50683 29.125 7V23Z"
  ></path>
</svg>
