<svg width="32" height="32" viewBox="0 0 32 32" fill="currentColor" xmlns="http://www.w3.org/2000/svg">
  <path
    d="M6.125 25.875H25.875V6.125H6.125V25.875ZM28.125 26C28.125 27.1736 27.1736 28.125 26 28.125H6C4.82639 28.125 3.875 27.1736 3.875 26V6C3.875 4.82639 4.82639 3.875 6 3.875H26C27.1736 3.875 28.125 4.82639 28.125 6V26Z"
  ></path>
  <path
    d="M21 14.875C21.6213 14.875 22.125 15.3787 22.125 16C22.125 16.6213 21.6213 17.125 21 17.125H11C10.3787 17.125 9.875 16.6213 9.875 16C9.875 15.3787 10.3787 14.875 11 14.875H21Z"
  ></path>
  <path
    d="M14.875 21V11C14.875 10.3787 15.3787 9.875 16 9.875C16.6213 9.875 17.125 10.3787 17.125 11V21C17.125 21.6213 16.6213 22.125 16 22.125C15.3787 22.125 14.875 21.6213 14.875 21Z"
  ></path>
</svg>
