<svg width="32" height="32" viewBox="0 0 32 32" fill="currentColor" xmlns="http://www.w3.org/2000/svg">
  <path
    d="M17.7674 11.6818V12.8181C17.7674 13.4209 18.0027 13.999 18.4213 14.4252C18.84 14.8514 19.4079 15.0908 20 15.0908L25.7674 15.0908C26.3596 15.0908 26.9274 14.8514 27.3461 14.4252C27.7648 13.999 28 13.4209 28 12.8181V8.27271C28 7.66995 27.7648 7.09188 27.3461 6.66566C26.9274 6.23945 26.3596 6 25.7674 6L20 6C19.4079 6 18.84 6.23945 18.4213 6.66566C18.0027 7.09188 17.7674 7.66995 17.7674 8.27271V9.40907L6.23256 9.40907L6.23256 4.13635C6.23256 4.13635 6.23256 3 5.11628 3C4 3 4 4.13635 4 4.13635V21.1819C4 22.086 4.35282 22.9531 4.98085 23.5925C5.60888 24.2318 6.46067 24.5909 7.34884 24.5909L17.7674 24.5909V25.7273C17.7674 26.3301 18.0027 26.9081 18.4213 27.3343C18.84 27.7606 19.4079 28 20 28L25.7674 28C26.3596 28 26.9274 27.7606 27.3461 27.3343C27.7648 26.9081 28 26.3301 28 25.7273V21.1819C28 20.5791 27.7648 20.0011 27.3461 19.5748C26.9274 19.1486 26.3596 18.9092 25.7674 18.9092L20 18.9092C19.4079 18.9092 18.84 19.1486 18.4213 19.5748C18.0027 20.0011 17.7674 20.5791 17.7674 21.1819V22.3182L7.34884 22.3182C7.05278 22.3182 6.76885 22.1985 6.55951 21.9854C6.35017 21.7723 6.23256 21.4833 6.23256 21.1819L6.23256 11.6818L17.7674 11.6818Z"
  ></path>
</svg>
