<svg width="32" height="32" viewBox="0 0 32 32" fill="currentColor" xmlns="http://www.w3.org/2000/svg">
  <path
    d="M13.2232 4.46577C14.4433 2.34457 17.5545 2.34492 18.7749 4.46577L29.7085 23.4501L29.7095 23.4521C30.9295 25.5817 29.325 28.1249 26.9322 28.1249H5.06692C2.67424 28.1248 1.06977 25.5816 2.28957 23.4521L2.29055 23.4501L13.2232 4.46577ZM16.8257 5.58784C16.4707 4.97045 15.5283 4.97037 15.1734 5.58784L4.24075 24.5722C3.93028 25.1174 4.30585 25.8748 5.06692 25.8749H26.9322C27.6934 25.8749 28.0689 25.1175 27.7583 24.5722L16.8257 5.58784Z"
  ></path>
  <path
    d="M14.875 18V13C14.875 12.3787 15.3787 11.875 16 11.875C16.6213 11.875 17.125 12.3787 17.125 13V18C17.125 18.6213 16.6213 19.125 16 19.125C15.3787 19.125 14.875 18.6213 14.875 18Z"
  ></path>
  <path
    d="M16 24C16.8284 24 17.5 23.3284 17.5 22.5C17.5 21.6716 16.8284 21 16 21C15.1716 21 14.5 21.6716 14.5 22.5C14.5 23.3284 15.1716 24 16 24Z"
  ></path>
</svg>
