<svg width="32" height="32" viewBox="0 0 32 32" fill="currentColor" xmlns="http://www.w3.org/2000/svg">
  <path
    d="M26.875 16C26.875 9.9939 22.0061 5.125 16 5.125C9.9939 5.125 5.125 9.9939 5.125 16C5.125 22.0061 9.9939 26.875 16 26.875C22.0061 26.875 26.875 22.0061 26.875 16ZM29.125 16C29.125 23.2487 23.2487 29.125 16 29.125C8.75126 29.125 2.875 23.2487 2.875 16C2.875 8.75126 8.75126 2.875 16 2.875C23.2487 2.875 29.125 8.75126 29.125 16Z"
  ></path>
  <path
    d="M14.875 17V10C14.875 9.37868 15.3787 8.875 16 8.875C16.6213 8.875 17.125 9.37868 17.125 10V17C17.125 17.6213 16.6213 18.125 16 18.125C15.3787 18.125 14.875 17.6213 14.875 17Z"
  ></path>
  <path
    d="M16 23C16.8284 23 17.5 22.3284 17.5 21.5C17.5 20.6716 16.8284 20 16 20C15.1716 20 14.5 20.6716 14.5 21.5C14.5 22.3284 15.1716 23 16 23Z"
  ></path>
</svg>
